General
Complete name                    : Stuart Little 2 (2002) BRRip 720P (English+Hindi)
Format                           : Matroska
File size                        : 1.35 GiB
Duration                         : 1h 17mn
Overall bit rate                 : 2 490 Kbps

Video
ID                               : 1
Format                           : AVC
Format/Info                      : Advanced Video Codec
Format profile                   : High@L4.1
Format settings, CABAC           : Yes
Format settings, ReFrames        : 6 frames
Muxing mode                      : Header stripping
Codec ID                         : V_MPEG4/ISO/AVC
Duration                         : 1h 17mn
Bit rate mode                    : Variable
Bit rate                         : 2 011 Kbps
Maximum bit rate                 : 30.0 Mbps
Width                            : 1 280 pixels
Height                           : 694 pixels
Display aspect ratio             : 16:9
Frame rate                       : 23.976 fps
Color space                      : YUV
Chroma subsampling               : 4:2:0
Bit depth                        : 8 bits
Scan type                        : Progressive
Bits/(Pixel*Frame)               : 0.094
Stream size                      : 1.06 GiB (79%)
Language                         : English

Audio #1
ID                               : 2
Format                           : AC-3
Format/Info                      : Audio Coding 3
Mode extension                   : CM (complete main)
Muxing mode                      : Header stripping
Codec ID                         : A_AC3
Duration                         : 1h 17mn
Bit rate mode                    : Constant
Bit rate                         : 320 Kbps
Channel(s)                       : 6 channels
Channel positions                : Front: L C R, Side: L R, LFE
Sampling rate                    : 48.0 KHz
Bit depth                        : 16 bits
Compression mode                 : Lossy
Stream size                      : 178 MiB (13%)
Title                            : 5.1
Language                         : English

Audio #2
ID                               : 3
Format                           : AC-3
Format/Info                      : Audio Coding 3
Mode extension                   : CM (complete main)
Muxing mode                      : Header stripping
Codec ID                         : A_AC3
Duration                         : 1h 17mn
Bit rate mode                    : Constant
Bit rate                         : 160 Kbps
Channel(s)                       : 2 channels
Channel positions                : Front: L R
Sampling rate                    : 44.1 KHz
Bit depth                        : 16 bits
Compression mode                 : Lossy
Delay relative to video          : 1s 367ms
Stream size                      : 89.0 MiB (6%)
Title                            : nsh168810
Language                         : Hindi



Screenshots : 
 
http://img191.imageshack.us/img191/7946/stuartlittle22002brrip7.jpg 
http://img88.imageshack.us/img88/7946/stuartlittle22002brrip7.jpg 
http://img818.imageshack.us/img818/7946/stuartlittle22002brrip7.jpg 
http://img8.imageshack.us/img8/7946/stuartlittle22002brrip7.jpg 
http://img818.imageshack.us/img818/9716/stuartlittle22002brrip7k.jpg 
http://img847.imageshack.us/img847/7946/stuartlittle22002brrip7.jpg 
http://img4.imageshack.us/img4/7946/stuartlittle22002brrip7.jpg 
http://img51.imageshack.us/img51/7946/stuartlittle22002brrip7.jpg 
http://img59.imageshack.us/img59/7946/stuartlittle22002brrip7.jpg
